<?xml version="1.0" standalone="no"?>
<!DOCTYPE svg PUBLIC "-//W3C//DTD SVG 20010904//EN"
 "http://www.w3.org/TR/2001/REC-SVG-20010904/DTD/svg10.dtd">
<svg version="1.0" xmlns="http://www.w3.org/2000/svg"
 width="512.000000pt" height="512.000000pt" viewBox="0 0 512.000000 512.000000"
 preserveAspectRatio="xMidYMid meet">

<g transform="translate(0.000000,512.000000) scale(0.100000,-0.100000)"
fill="#000000" stroke="none">
<path d="M1758 5045 c-38 -21 -51 -69 -36 -136 18 -82 15 -252 -6 -329 -9 -36
-55 -144 -102 -242 -101 -211 -123 -280 -131 -414 -11 -187 49 -353 171 -476
105 -107 179 -127 230 -66 20 25 20 42 -4 232 -19 160 13 302 99 436 74 115
87 139 114 215 50 142 58 309 21 436 -37 127 -134 264 -231 328 -51 34 -84 38
-125 16z"/>
<path d="M2563 4750 c-12 -5 -29 -21 -39 -35 -15 -23 -15 -36 -4 -133 17 -145
2 -208 -89 -401 -83 -173 -101 -238 -101 -359 0 -158 63 -296 178 -389 65 -53
114 -58 152 -18 28 29 29 57 12 186 -12 95 -3 193 23 256 9 21 37 71 63 113
56 88 76 133 97 215 52 206 -32 444 -194 547 -47 29 -62 32 -98 18z"/>
<path d="M145 3211 c-119 -54 -165 -188 -131 -376 161 -869 498 -1564 956
-1972 110 -98 295 -225 407 -280 l78 -38 -575 -5 c-640 -6 -601 -1 -674 -76
-66 -68 -83 -172 -42 -259 28 -60 66 -97 126 -124 45 -20 55 -21 1885 -21
l1840 0 50 24 c152 72 192 264 79 380 -73 75 -35 70 -669 76 l-570 5 110 58
c161 85 283 175 436 324 111 108 141 133 165 133 43 0 198 35 289 65 561 184
1065 740 1196 1319 57 252 -46 442 -258 476 -32 6 -155 10 -274 10 l-216 0 -6
53 c-3 30 -11 74 -18 98 -17 56 -91 133 -138 142 -18 4 -927 7 -2020 7 -1900
0 -1988 -1 -2026 -19z m4475 -760 c0 -21 -63 -161 -106 -235 -113 -194 -281
-376 -462 -498 -84 -57 -83 -57 -25 70 66 146 167 431 208 592 9 36 19 68 21
72 7 11 364 10 364 -1z"/>
</g>
</svg>
