<svg xmlns="http://www.w3.org/2000/svg" fill="currentColor" viewBox="0 0 601 601">
    <path d="M295 0h11v39h-11V0ZM241 5h4l2.375 11.375.672 3.215c1.348 6.464 2.67 12.932 3.953 19.41l-1 5h-3c-1.002-4.91-1.999-9.822-2.99-14.734-.339-1.67-.678-3.34-1.02-5.01-.49-2.403-.975-4.806-1.459-7.21l-.464-2.257A245.24 245.24 0 0 1 241 9V5ZM360 7h4c-1.363 8.836-3.147 17.533-5.125 26.25l-.84 3.738c-.675 3.005-1.354 6.009-2.035 9.012l-4-1c1.092-8.494 2.747-16.822 4.563-25.188l.672-3.115c1.222-5.556 1.222-5.556 1.765-7.697l1-2ZM191 20l1.318 1.565L194 24a144.617 144.617 0 0 1 2.918 6.953l.794 2c.831 2.097 1.653 4.197 2.476 6.297.563 1.427 1.128 2.854 1.693 4.281 1.38 3.487 2.751 6.977 4.119 10.469l-1 4-9 3a70302.083 70302.083 0 0 1-9.18-22.168l-1.491-3.602A737.315 737.315 0 0 1 182 27l1-4 8-3ZM411 22l9 3 2 2a43740.523 43740.523 0 0 1-7.943 18.75c-.965 2.279-1.93 4.557-2.897 6.836l-.912 2.156c-2.134 5.03-2.134 5.03-3.248 7.258a111.726 111.726 0 0 1-6-1l-2.375-1.063L397 59c.25-2.012.607-4.01 1-6 .926-2.5 1.887-4.924 2.941-7.367l.87-2.06c.911-2.152 1.831-4.3 2.752-6.448l1.865-4.398C407.945 29.148 409.47 25.573 411 22ZM136 48l3 1 1.19 1.877c1.81 2.854 3.623 5.707 5.435 8.56l1.871 2.952A776.021 776.021 0 0 0 159 80l-2 3-3-1c-2.208-3.43-4.413-6.863-6.616-10.297a3820.53 3820.53 0 0 0-2.246-3.494C141.28 62.216 137.443 56.243 134 50l2-2ZM466 50l4 2c-6.747 10.831-13.9 21.398-21 32l-4-1c.599-1.692 1.286-3.353 2-5a171.885 171.885 0 0 1 4.098-6.36l1.195-1.787c.829-1.238 1.66-2.475 2.493-3.71a1753.55 1753.55 0 0 0 3.825-5.702c4.317-6.439 4.317-6.439 6.389-9.441l1-1ZM90 84l4 1 25 25-1 4-5 5-1.634-.646L109 117a153.46 153.46 0 0 1-5.86-5.664l-1.664-1.673a1820.302 1820.302 0 0 1-5.226-5.288 6499.955 6499.955 0 0 0-3.559-3.586A3763.515 3763.515 0 0 1 84 92a88.872 88.872 0 0 1 2-4 89.782 89.782 0 0 1 4-4ZM508 84l4 2a89.782 89.782 0 0 1 4 4l-1 4-25 25-4-2-5-6 27-27ZM51 131l5 1 1.386.99C66.121 139.223 74.849 145.387 84 151l-1 4-4-1-28-19v-4ZM549 136l3 1-1 4-1.57.99C535.2 150.971 535.2 150.971 521 160l-3-1v-3a8910.53 8910.53 0 0 1 31-20ZM151 171h40c2.943 7.062 5.87 14.107 8.652 21.23l1.007 2.571c1.095 2.795 2.187 5.59 3.279 8.387l1.163 2.975c9.03 23.1 17.952 46.241 26.87 69.384a39617.804 39617.804 0 0 0 16.103 41.707L253 330v3c-4.305.05-8.61.086-12.915.11-1.463.01-2.925.023-4.388.04-2.11.025-4.22.037-6.33.045l-3.84.032L222 333c-3.46-1.012-3.46-1.012-6-2l-5-5-10-29-60-1-3 11a173.062 173.062 0 0 1-1.824 5.45l-.928 2.626-.935 2.611-.971 2.74c-.777 2.193-1.558 4.383-2.342 6.573l-6 5-1.538.494L121 333c-2.462.082-4.927.107-7.39.098l-2.136-.005c-2.241-.005-4.483-.018-6.724-.03-1.523-.006-3.047-.01-4.57-.014-3.727-.011-7.453-.028-11.18-.049 1.429-5.016 2.934-9.977 4.783-14.856.662-1.707 1.329-3.412 1.998-5.117l1.108-2.847c1.2-3.082 2.406-6.162 3.611-9.243l2.557-6.562c1.768-4.541 3.539-9.082 5.31-13.622 3.67-9.408 7.318-18.825 10.966-28.242l5.85-15.09a149914.132 149914.132 0 0 0 16.634-42.908l3.5-9.029 1.045-2.698.968-2.498.836-2.156c.932-2.382 1.884-4.757 2.834-7.132Zm20 37c-2.574 6.726-4.917 13.52-7.23 20.34l-1.198 3.523-2.489 7.33c-1.275 3.757-2.553 7.514-3.831 11.27l-2.42 7.127-1.165 3.421-1.062 3.137-.942 2.773L150 269v1h42c-1.319-6.084-1.319-6.084-2.924-12.094l-.955-2.793-1.092-3.213-1.162-3.373-1.202-3.526a6334.5 6334.5 0 0 0-3.79-11.064A12402.54 12402.54 0 0 0 172 208l-1 .001ZM265 171h38v65l12-2a141.364 141.364 0 0 0 4.396-3.497L321 229a91.033 91.033 0 0 0 4.375-6.375c.86-1.334 1.724-2.666 2.59-3.996l1.44-2.218c3.092-4.675 6.321-9.256 9.533-13.849l4.12-5.906 2.012-2.883c4.34-6.236 8.636-12.504 12.93-18.773l7-4h41l-4 7a189.592 189.592 0 0 1-4.438 5.813c-4.063 5.183-7.972 10.46-11.812 15.812a2208.886 2208.886 0 0 1-19.186 26.254 754.367 754.367 0 0 0-4.236 5.809c-2.06 2.82-4.117 5.609-6.328 8.312-1.879 1.836-1.879 1.836-3.563 3.25L350 245l2.063 1.5L355 249c2.461 2.563 4.764 5.24 7 8 2.155 3.014 4.147 6.118 6.125 9.25l3.422 5.34 1.74 2.73c2.672 4.18 5.38 8.336 8.088 12.493l3.219 4.953c2.433 3.742 4.872 7.48 7.312 11.218l2.003 3.068 3.803 5.82A1643.786 1643.786 0 0 1 410 331v2c-4.98.05-9.96.086-14.941.11-1.692.01-3.383.023-5.075.04a1139.5 1139.5 0 0 1-7.328.045l-2.26.032c-2.15 0-4.253-.046-6.396-.227-2.724-.539-5.326-1.236-8-2a123.366 123.366 0 0 1-3.547-3.39L361 326c-1.951-2.612-3.725-5.33-5.5-8.063l-1.569-2.383A1825.198 1825.198 0 0 1 349 308l-1.597-2.455a7176.618 7176.618 0 0 1-6.376-9.826C334.778 286.084 328.392 276.541 322 267l-5-2-14-1v69h-38V171ZM421 171h38v131h60v31h-98V171ZM24 179c2.012.25 4.01.607 6 1 2.5.926 4.924 1.887 7.367 2.941l2.06.87c2.152.911 4.3 1.831 6.448 2.751l4.398 1.866C53.852 189.945 57.427 191.47 61 193c-.477 1.459-.957 2.917-1.438 4.375l-.808 2.46L58 202l-1 2c-4.127-1.293-8.167-2.665-12.18-4.279a1412.594 1412.594 0 0 1-10.383-4.409l-3.634-1.548c-2.936-1.252-5.87-2.506-8.803-3.764l-1-4 3-7ZM575 183l2 1 3 10-35 14h-2l-3-7v-4l35-14ZM6 237c3.024.26 5.996.573 9 1 4.874.933 9.717 1.994 14.563 3.063l3.923.853c3.172.69 6.344 1.385 9.514 2.084l1 5c-26.958-5.35-26.958-5.35-39-8l1-4ZM591 241h4v4l-11.375 2.375-3.215.672c-2.116.441-4.233.881-6.35 1.32-1.981.41-3.961.824-5.94 1.243l-2.66.554-2.326.49L561 252h-4l-1-4c4.91-1.002 9.822-1.999 14.734-2.99 1.67-.339 3.34-.678 5.01-1.02 2.403-.49 4.806-.975 7.21-1.459l2.257-.464A245.24 245.24 0 0 1 591 241ZM0 295h39v11H0v-11ZM561 295h40v11h-40v-11ZM187 346h14l-3 3-12 5h-12c1.606-1.405 3.293-2.72 5-4 2.627-1.437 5.292-2.715 8-4ZM418 346h14l-3 3-12 5h-12c1.606-1.405 3.293-2.72 5-4 2.627-1.437 5.292-2.715 8-4ZM339 347h12l4 3c1.67-.66 3.336-1.327 5-2l2-1h11a207.388 207.388 0 0 1-5 4l-5 3h-13l-11-6v-1ZM40 348l4 1v3c-3.603.795-7.208 1.585-10.813 2.375l-3.044.672c-14.41 3.15-14.41 3.15-20.143 3.953-1.666.03-3.334.04-5 0v-4l35-7ZM555 354c3.684.217 7.337.55 11 1 4.924.899 9.803 1.971 14.688 3.063l3.896.853c3.14.689 6.279 1.383 9.416 2.084l-1 4c-3.35-.222-6.67-.561-10-1-4.899-.916-9.76-1.983-14.625-3.063l-3.91-.853c-3.156-.69-6.311-1.384-9.465-2.084v-4ZM91 357h54l-1 4c-12.465 9.295-25.216 18.15-38 27l38 1v4H89l1-4a1007.69 1007.69 0 0 1 22.938-16.313c2.01-1.39 4.018-2.783 6.027-4.175l2.644-1.83c2.16-1.52 4.278-3.097 6.391-4.682l-37-1v-4ZM176 357h12c5.193 5.683 10.046 11.53 14.766 17.603 4.608 5.915 9.397 11.668 14.234 17.397v1h-12l-7-9-32-1-2 4c-1.579 2.086-3.288 4.018-5 6h-11c.94-1.701 1.961-3.357 3-5 1.935-2.533 3.967-4.983 6-7.438a933.647 933.647 0 0 0 14.66-18.308c1.11-1.421 2.224-2.838 3.34-4.254l1-1Zm5 7-11 14v1h24l-2-4a203.795 203.795 0 0 0-4.625-5.75l-2.477-2.984L183 364h-2ZM225 357h10v32h32v4h-42v-36ZM277 357h45v4h-34v12h28v4h-28v12h34v4h-45v-36ZM344 357h23l8 3-2 4-1.625-.219c-3.448-.408-6.883-.733-10.354-.844a416.668 416.668 0 0 0-6.396-.062l-2.09-.014c-1.845.006-3.69.07-5.535.139l-2.477.508L343 364l1 4 1.879.879L349 370c4.176.937 8.394 1.663 12.607 2.412 2.488.468 4.941.956 7.393 1.588l3.629 1.629L375 377l2 3-1 6-6 5c-1.566.55-3.14 1.08-4.736 1.533L363 393c-3.774.313-7.527.325-11.313.313l-2.974.048a198.05 198.05 0 0 1-5.844-.081L340 393a96.152 96.152 0 0 1-5.73-1.52A179.997 179.997 0 0 1 330 390l-1-3 3-2c5.957.684 5.957.684 8 1l3 1c1.335.08 2.674.108 4.012.098l2.295-.01 2.38-.026 2.417-.013c1.965-.012 3.93-.03 5.896-.049l5-2v-4a150.963 150.963 0 0 0-10-3c-5.307-1.133-10.655-2.065-16-3a749.534 749.534 0 0 1-6-4l-1-1v-6l4-4 8-3ZM407 357h12c5.193 5.683 10.046 11.53 14.766 17.603 4.608 5.915 9.397 11.668 14.234 17.397v1h-12l-7-9-32-1-2 4c-1.579 2.086-3.288 4.018-5 6h-11c.94-1.701 1.961-3.357 3-5 1.935-2.533 3.967-4.983 6-7.438a933.647 933.647 0 0 0 14.66-18.308c1.11-1.421 2.224-2.838 3.34-4.254l1-1Zm5 7-11 14v1h24l-2-4a203.795 203.795 0 0 0-4.625-5.75l-2.477-2.984L414 364h-2ZM456 357h10v16c2.347-.599 4.69-1.217 7.01-1.913L476 370c4.153-2.043 8.135-4.345 12.125-6.688l3.188-1.837c2.567-1.483 5.128-2.978 7.687-4.475h14l-4 3a277.677 277.677 0 0 1-5.64 3.355l-3.243 1.885-3.367 1.947-3.414 1.983A6071.37 6071.37 0 0 1 485 374a157.24 157.24 0 0 0 5 4 171.35 171.35 0 0 0 5.957 3.453l3.37 1.875 3.486 1.922 3.544 1.969c2.879 1.598 5.76 3.191 8.643 4.781v1h-14l-5.371-2.992c-1.747-.96-3.495-1.921-5.243-2.88a602.415 602.415 0 0 1-3.599-1.996c-3.876-2.165-7.76-4.26-11.787-6.132-2.775-.91-2.775-.91-5.348-1.445L466 377v16h-10v-36ZM53 394l3 1 3 9c-10.826 5.085-21.916 9.513-33 14h-4l-3-7v-3c11.254-4.882 22.489-9.75 34-14ZM542 398c10.974 3.908 21.595 8.396 32.188 13.242L578 413l-3 9-4 1-2.706-1.177c-3.315-1.442-6.63-2.883-9.947-4.322l-4.303-1.871c-2.063-.898-4.125-1.793-6.189-2.689l-1.941-.846c-2.619-1.135-5.204-2.192-7.914-3.095l1-6 3-5ZM78 442l3 1v3c-21.607 14.076-21.607 14.076-31 20l-3-1 1-4 3.008-1.871A1880.11 1880.11 0 0 0 78 442ZM517 445l1.658.284L521 446a109.94 109.94 0 0 1 5.465 3.457l3.174 2.123 3.298 2.233 3.288 2.197c7.945 5.338 7.945 5.338 11.625 8.231L550 466l-1 4-2.098-.715L544 468a172.241 172.241 0 0 1-6.438-4.563c-7.003-5.115-14.224-9.82-21.562-14.437l1-4ZM111 481l7 6v4l-25 25-4-1-5-5 .646-1.634L86 506a153.46 153.46 0 0 1 5.664-5.86l1.673-1.664c1.758-1.747 3.523-3.486 5.288-5.226l3.586-3.559c2.924-2.902 5.855-5.798 8.789-8.691ZM488 481l1.647.66L492 483a142.25 142.25 0 0 1 5.64 5.445l1.598 1.606c1.675 1.687 3.344 3.38 5.012 5.074l3.414 3.441c2.784 2.806 5.562 5.619 8.336 8.434l-1 4-5 5-1.634-.646L506 514a153.46 153.46 0 0 1-5.86-5.664l-1.664-1.673a1820.302 1820.302 0 0 1-5.226-5.288 6499.955 6499.955 0 0 0-3.559-3.586A3763.515 3763.515 0 0 1 481 489l2.938-3.438 1.652-1.933A49.663 49.663 0 0 1 488 481ZM152 516l3 1-.234 1.58L154 521a152.49 152.49 0 0 1-4.254 6.734l-1.274 1.934a1831.76 1831.76 0 0 1-4.035 6.082c-.91 1.379-1.822 2.757-2.732 4.137A3787.27 3787.27 0 0 1 135 550l-4-1 .252-1.61L132 545a128.167 128.167 0 0 1 3.965-6.227l1.192-1.784c.83-1.24 1.663-2.48 2.499-3.717 1.28-1.894 2.55-3.793 3.819-5.694.808-1.206 1.618-2.412 2.427-3.617l1.153-1.72A267.182 267.182 0 0 1 150 518l2-2ZM442 519l3 1 1.836 2.973A856.997 856.997 0 0 0 465 551l-2 3-4-2-1.871-3.008A1880.11 1880.11 0 0 0 440 522l2-3ZM192 539l10 4-1 5a201.494 201.494 0 0 1-2.941 7.27c-.288.68-.575 1.362-.87 2.063a2273.99 2273.99 0 0 1-2.751 6.48c-.623 1.47-1.244 2.94-1.866 4.412-1.519 3.594-3.044 7.185-4.572 10.775-2.337-.303-4.67-.639-7-1l-2.438-1.063L177 576c.26-1.68.617-3.344 1-5 .939-2.452 1.91-4.858 2.941-7.27.288-.68.575-1.362.87-2.063.913-2.162 1.832-4.32 2.751-6.48.623-1.47 1.244-2.94 1.866-4.412 1.519-3.594 3.044-7.185 4.572-10.775l1-1ZM401 541h2l14 35v2l-7 3h-4l-14-34 1-3 8-3ZM243 556l4 1c-1.092 8.494-2.747 16.822-4.563 25.188l-.672 3.115c-1.222 5.556-1.222 5.556-1.765 7.697l-1 2h-4c1.363-8.836 3.147-17.533 5.125-26.25l.84-3.738c.675-3.005 1.354-6.009 2.035-9.012ZM350 556h2c.99 4.435 1.965 8.873 2.938 13.313l.841 3.767c.792 3.634 1.553 7.261 2.221 10.92.45 3.663.783 7.316 1 11h-4c-1-4.929-1.997-9.858-2.99-14.789l-1.02-5.031c-.488-2.41-.974-4.82-1.459-7.23l-.464-2.274A311.205 311.205 0 0 1 348 560v-3l2-1ZM295 561h11v40h-11v-40Z"/>
</svg>
